<svg id="Capa_1" enable-background="new 0 0 512 512" height="512" viewBox="0 0 512 512" width="512" xmlns="http://www.w3.org/2000/svg"><g><g><path d="m474.426 189.681h-436.852c-18.649 0-33.768-15.118-33.768-33.768v-122.145c0-18.65 15.118-33.768 33.768-33.768h436.853c18.649 0 33.768 15.118 33.768 33.768v122.146c-.001 18.649-15.119 33.767-33.769 33.767z" fill="#b3dafe"/><path d="m474.426 0h-30.446c18.649 0 33.768 15.118 33.768 33.768v122.146c0 18.649-15.118 33.768-33.768 33.768h30.446c18.649 0 33.768-15.118 33.768-33.768v-122.146c0-18.65-15.118-33.768-33.768-33.768z" fill="#8ac9fe"/><g fill="#fff"><path d="m448.994 70.173c-3.967-1.377-8.308.72-9.689 4.691l-16.149 46.461-15.869-46.912c-1.818-6.032-11.641-7.542-14.387-.097l-16.701 47.26-15.876-46.589c-1.356-3.978-5.68-6.104-9.66-4.75-3.979 1.357-6.106 5.681-4.75 9.66l22.949 67.348c1.046 3.068 3.92 5.138 7.162 5.157h.044c3.224 0 6.101-2.033 7.176-5.075l16.675-47.185 15.929 47.088c1.042 3.08 3.926 5.159 7.178 5.172h.032c3.239 0 6.125-2.051 7.189-5.113l23.436-67.427c1.382-3.971-.718-8.309-4.689-9.689z"/><path d="m142.441 70.184c-22.513 0-40.828 18.441-40.828 41.108 0 22.668 18.315 41.109 40.828 41.109s40.828-18.441 40.828-41.109c0-22.667-18.316-41.108-40.828-41.108zm0 66.994c-14.119 0-25.605-11.612-25.605-25.886s11.486-25.885 25.605-25.885 25.605 11.611 25.605 25.885-11.487 25.886-25.605 25.886z"/><path d="m300.747 70.184c-22.513 0-40.828 18.441-40.828 41.108 0 22.668 18.315 41.109 40.828 41.109s40.828-18.441 40.828-41.109c0-22.667-18.315-41.108-40.828-41.108zm0 66.994c-14.119 0-25.605-11.612-25.605-25.886s11.486-25.885 25.605-25.885 25.605 11.611 25.605 25.885-11.486 25.886-25.605 25.886z"/><path d="m205.268 37.28c-4.204 0-7.611 3.407-7.611 7.611v99.898c0 4.204 3.408 7.611 7.611 7.611 4.204 0 7.611-3.407 7.611-7.611v-99.897c0-4.204-3.408-7.612-7.611-7.612z"/><path d="m240.234 37.28c-4.204 0-7.611 3.407-7.611 7.611v99.898c0 4.204 3.408 7.611 7.611 7.611s7.611-3.407 7.611-7.611v-99.897c.001-4.204-3.407-7.612-7.611-7.612z"/><path d="m94.456 37.89c-1.144-.268-11.39-2.422-18.781 3.451-2.995 2.38-6.563 6.931-6.563 15.103v15.275h-3.607c-4.204 0-7.611 3.407-7.611 7.611s3.408 7.611 7.611 7.611h3.607v57.848c0 4.204 3.408 7.611 7.611 7.611s7.611-3.407 7.611-7.611v-57.847h7.204c4.204 0 7.611-3.407 7.611-7.611s-3.408-7.611-7.611-7.611h-7.204v-15.276c0-.76.078-2.592.802-3.177 1.132-.917 4.224-.897 5.934-.535 4.077.916 8.136-1.63 9.081-5.708.95-4.095-1.599-8.185-5.695-9.134z"/></g></g><g><path d="m346.189 313.133.004-41.01c.001-9.944 8.062-18.004 18.005-18.004 9.944 0 18.006 8.054 18.006 17.998.002 31.488.002 94.645.002 109.465 0 2.108-.222 4.203-.663 6.265l-17.432 81.551-116.052-9.534-85.088-148.683c-4.586-8.834-3.321-19.571 3.193-27.096 5.548-6.411 15.411-6.651 21.265-.518l42.449 44.475c2.984 3.127 8.257 1.014 8.257-3.308v-134.547c0-9.946 8.063-18.009 18.009-18.009 9.946 0 18.009 8.063 18.009 18.009v122.946z" fill="#ffcebf"/><g fill="#ffb09e"><path d="m166.389 283.851 39.621 41.512c6.257 6.556 16.314 7.685 23.869 2.679l-42.449-44.475c-5.778-6.055-15.455-5.887-21.041.284z"/><path d="m252.841 190.187v112.29c0 5.885 4.771 10.656 10.656 10.656 5.885 0 10.656-4.771 10.656-10.656v-111.853c0-9.4-7.027-17.547-16.39-18.374-4.616-.408-8.889.95-12.275 3.443 4.452 3.279 7.353 8.541 7.353 14.494z"/><path d="m382.205 272.117c-.001-9.944-8.062-17.997-18.006-17.997-3.992 0-7.669 1.315-10.654 3.514 4.449 3.276 7.348 8.533 7.348 14.484.002 35.823.002 112.63.002 112.63l-17.727 82.931 20.944 1.721 17.432-81.551c.441-2.061.663-4.161.663-6.268 0-14.83 0-77.979-.002-109.464z"/></g><path d="m274.154 313.133v-41.005c0-9.946 8.063-18.009 18.009-18.009 9.946 0 18.009 8.063 18.009 18.009v41.005z" fill="#ffcebf"/><path d="m221.946 512c-2.242 0-4.059-1.817-4.059-4.059l-.001-32.549c-.001-13.231 10.727-23.959 23.958-23.96h116.284c13.231-.001 23.95 10.722 23.952 23.953l.001 32.556c0 2.242-1.817 4.06-4.059 4.06h-156.076z" fill="#aee49e"/><path d="m382.079 475.385c-.001-13.231-10.72-23.955-23.952-23.953h-116.284c-.001 0-.003 0-.004 0h85.842c13.231-.001 23.95 10.722 23.952 23.953l.001 32.556c0 2.242-1.817 4.059-4.059 4.059h30.446c2.242 0 4.059-1.818 4.059-4.059z" fill="#8bd8a5"/><path d="m310.171 272.128c0-9.946 8.063-18.009 18.009-18.009 9.946 0 18.009 8.063 18.009 18.009v41.005h-36.018z" fill="#ffcebf"/><g fill="#ffb09e"><path d="m328.18 254.119c-4.021 0-7.722 1.334-10.719 3.561 4.416 3.282 7.29 8.523 7.29 14.447v30.286c0 5.92 4.799 10.719 10.719 10.719s10.719-4.799 10.719-10.719v-30.286c0-9.945-8.063-18.008-18.009-18.008z"/><path d="m292.162 254.119c-4.021 0-7.721 1.334-10.719 3.561 4.416 3.282 7.29 8.523 7.29 14.447v30.286c0 5.92 4.799 10.719 10.719 10.719s10.719-4.799 10.719-10.719v-30.286c0-9.945-8.063-18.008-18.009-18.008z"/></g></g></g></svg>